<svg width="34" height="26" viewBox="0 0 34 26" fill="none" xmlns="http://www.w3.org/2000/svg">
<path d="M1 6.14286L22.3333 6.14286M22.3333 6.14286C22.3333 8.98318 24.7211 11.2857 27.6667 11.2857C30.6122 11.2857 33 8.98318 33 6.14286C33 3.30254 30.6122 1 27.6667 1C24.7211 1 22.3333 3.30254 22.3333 6.14286ZM11.6667 19.8571L33 19.8571M11.6667 19.8571C11.6667 22.6975 9.27885 25 6.33333 25C3.38781 25 1 22.6975 1 19.8571C1 17.0168 3.38781 14.7143 6.33333 14.7143C9.27885 14.7143 11.6667 17.0168 11.6667 19.8571Z" stroke="#717171" stroke-width="2" stroke-linecap="round" stroke-linejoin="round"/>
</svg>
