<svg width="24" height="25" viewBox="0 0 24 25" fill="none" xmlns="http://www.w3.org/2000/svg">
<path d="M0.75 6.75C0.75 4.6498 0.75 3.5997 1.15873 2.79754C1.51825 2.09193 2.09193 1.51825 2.79754 1.15873C3.5997 0.75 4.6498 0.75 6.75 0.75H17.25C19.3502 0.75 20.4003 0.75 21.2025 1.15873C21.9081 1.51825 22.4817 2.09193 22.8413 2.79754C23.25 3.5997 23.25 4.6498 23.25 6.75V13.875C23.25 15.6223 23.25 16.4959 22.9645 17.1851C22.5839 18.1039 21.8539 18.8339 20.9351 19.2145C20.2459 19.5 19.3723 19.5 17.625 19.5C17.0143 19.5 16.7089 19.5 16.4256 19.5669C16.0479 19.656 15.6961 19.8319 15.3981 20.0806C15.1747 20.2671 14.9914 20.5114 14.625 21L12.8 23.4333C12.5286 23.7952 12.3929 23.9761 12.2265 24.0408C12.0808 24.0975 11.9192 24.0975 11.7735 24.0408C11.6071 23.9761 11.4714 23.7952 11.2 23.4333L9.375 21C9.00857 20.5114 8.82535 20.2671 8.60187 20.0806C8.30389 19.8319 7.95211 19.656 7.57438 19.5669C7.29108 19.5 6.98572 19.5 6.375 19.5C4.62772 19.5 3.75408 19.5 3.06494 19.2145C2.14608 18.8339 1.41605 18.1039 1.03545 17.1851C0.75 16.4959 0.75 15.6223 0.75 13.875V6.75Z" stroke="#717171" stroke-width="1.5" stroke-linecap="round" stroke-linejoin="round"/>
</svg>
