<svg width="24" height="24" viewBox="0 0 24 24" fill="none" xmlns="http://www.w3.org/2000/svg">
<path d="M12 7V17M7 12H17M6.75 23.25H17.25C19.3502 23.25 20.4003 23.25 21.2025 22.8413C21.9081 22.4817 22.4817 21.9081 22.8413 21.2025C23.25 20.4003 23.25 19.3502 23.25 17.25V6.75C23.25 4.6498 23.25 3.5997 22.8413 2.79754C22.4817 2.09193 21.9081 1.51825 21.2025 1.15873C20.4003 0.75 19.3502 0.75 17.25 0.75H6.75C4.6498 0.75 3.5997 0.75 2.79754 1.15873C2.09193 1.51825 1.51825 2.09193 1.15873 2.79754C0.75 3.5997 0.75 4.6498 0.75 6.75V17.25C0.75 19.3502 0.75 20.4003 1.15873 21.2025C1.51825 21.9081 2.09193 22.4817 2.79754 22.8413C3.5997 23.25 4.6498 23.25 6.75 23.25Z" stroke="#717171" stroke-width="1.5" stroke-linecap="round" stroke-linejoin="round"/>
</svg>
