<svg width="27" height="25" viewBox="0 0 27 25" fill="none" xmlns="http://www.w3.org/2000/svg">
<path d="M12.6033 2.31658C12.8914 1.73291 13.0355 1.44107 13.231 1.34783C13.4012 1.26671 13.5988 1.26671 13.769 1.34783C13.9645 1.44107 14.1086 1.73291 14.3967 2.31658L17.1301 7.85404C17.2151 8.02636 17.2576 8.11251 17.3198 8.17941C17.3748 8.23864 17.4408 8.28663 17.5141 8.32072C17.5969 8.35922 17.692 8.37311 17.8821 8.40091L23.9962 9.29457C24.6401 9.38868 24.962 9.43573 25.111 9.59298C25.2406 9.7298 25.3015 9.91781 25.2769 10.1047C25.2485 10.3194 25.0154 10.5464 24.5493 11.0004L20.1268 15.308C19.9889 15.4422 19.92 15.5094 19.8755 15.5893C19.8361 15.66 19.8109 15.7377 19.8011 15.8181C19.7901 15.9088 19.8064 16.0037 19.8389 16.1934L20.8824 22.2776C20.9925 22.9193 21.0475 23.2402 20.9441 23.4306C20.8541 23.5962 20.6942 23.7124 20.5088 23.7468C20.2958 23.7863 20.0076 23.6347 19.4314 23.3317L13.9654 20.4572C13.7951 20.3677 13.71 20.3229 13.6203 20.3053C13.5408 20.2897 13.4591 20.2897 13.3797 20.3053C13.29 20.3229 13.2049 20.3677 13.0345 20.4572L7.56863 23.3317C6.99237 23.6348 6.70424 23.7863 6.49119 23.7468C6.30583 23.7124 6.14588 23.5962 6.0559 23.4306C5.95248 23.2402 6.00751 22.9193 6.11757 22.2776L7.16108 16.1934C7.19362 16.0037 7.20988 15.9088 7.19888 15.8181C7.18913 15.7377 7.16387 15.66 7.12448 15.5893C7.08 15.5094 7.01107 15.4422 6.87321 15.308L2.45068 11.0004C1.98456 10.5464 1.7515 10.3194 1.72313 10.1047C1.69846 9.91781 1.75942 9.7298 1.88904 9.59298C2.03802 9.43573 2.35994 9.38868 3.00378 9.29457L9.11787 8.40091C9.30801 8.37311 9.40308 8.35922 9.48587 8.32072C9.55918 8.28663 9.62518 8.23864 9.68021 8.17941C9.74236 8.11251 9.78489 8.02636 9.86994 7.85404L12.6033 2.31658Z" stroke="#717171" stroke-width="1.5" stroke-linecap="round" stroke-linejoin="round"/>
</svg>
